:SAMPLES-PER-SECOND 30
:FULLY-SPECIFIED
:DEGREES
301
root  34.78401064 36.54607037 -14.41713318 8.296180725 -4.027327538 3.039571047
lowerback  -8.070427895 -0.7063345909 -0.7490438223
upperback  -3.984810114 -0.393083185 -3.447540045
thorax  0.3852159977 -0.03502223268 -3.172230005
lowerneck  -7.835549831 -12.93719959 -10.14750004
upperneck  12.26480007 -17.6149025 10.77869987
head  6.897142887 -8.183320999 3.349915266
lclavicle  0 -4.497500157e-015 -2.743230041e-014
lhumerus  -47.90019989 30.37579918 63.13270187
lradius  -0.03592705727 -6.507048965e-006 30.53919983
lwrist  3.192251654e-007 -3.790274832e-007 -27.69940186
lhand  -4.408758328e-031 -36.7806015 -10.70950031
lfingers  90 7.125020027 -90
lthumb  94.76737377 -25.54891691 100.9444684
rclavicle  0 -4.497500157e-015 -2.743230041e-014
rhumerus  -53.32580185 -30.02090073 -52.65359879
rradius  -5.16745672e-007 2.214343908e-008 71.31600189
rwrist  0.0003490542294 -0.002273720223 -170.3829956
rhand  -1.770394641e-031 4.234189987 -5.052420139
rfingers  -90 -7.125020027 -90
rthumb  -83.84801239 -10.66646252 -59.78585138
rfemur  -10.02831459 15.81254482 13.50221634
rtibia  -0.1576283276 -0.4636345208 18.41967201
rfoot  1.298084974 -21.0760994 -36.07965851
rtoes  3.899464943 19.63145705 -101.4689094
lfemur  -4.61128664 -16.25351334 -21.11136055
ltibia  4.645313263 -0.2601003051 10.68245792
lfoot  0.2201791853 -22.9666748 36.16752625
ltoes  -8.552300206 -18.14728783 -115.7728985
302
root  34.78448222 36.54557476 -14.41485187 8.280672073 -4.078901768 3.022025108
lowerback  -8.093380928 -0.7053647637 -0.7633853555
upperback  -3.999939919 -0.3919108212 -3.43501997
thorax  0.3822839856 -0.03610093892 -3.151089907
lowerneck  -7.804279804 -12.94139957 -10.15670013
upperneck  12.26580048 -17.61910057 10.76249981
head  6.894296169 -8.188269615 3.344399929
lclavicle  0 -4.497500157e-015 -2.743230041e-014
lhumerus  -47.86980057 30.34819984 63.13529968
lradius  -0.03417764977 -6.507048965e-006 30.53000259
lwrist  3.192251654e-007 -3.790274832e-007 -27.73649979
lhand  -4.408758328e-031 -36.7806015 -10.71360016
lfingers  90 7.125020027 -90
lthumb  94.76822899 -25.55304549 100.9447832
rclavicle  0 -4.497500157e-015 -2.743230041e-014
rhumerus  -53.04679871 -30.45429993 -52.74129868
rradius  -5.16745672e-007 2.214343908e-008 69.92720032
rwrist  0.0003490542294 -0.002273720223 -168.9080048
rhand  -1.770540587e-031 4.297510147 -5.141640186
rfingers  -90 -7.125020027 -90
rthumb  -83.876969 -10.59218524 -59.7321692
rfemur  -10.00968361 15.8601284 13.51077461
rtibia  -0.1409476548 -0.4465099871 18.40241051
rfoot  1.304713249 -21.05949402 -36.0814209
rtoes  3.909500135 19.62953681 -101.4987802
lfemur  -4.576191425 -16.11923027 -21.1083622
ltibia  4.64667511 -0.2487524301 10.66402912
lfoot  0.1988904327 -22.98762321 36.07934952
ltoes  -8.571482709 -18.13847423 -115.8345018
303
root  34.78273106 36.54577601 -14.41212151 8.290729523 -4.136868 3.009185791
lowerback  -8.097273827 -0.7039805055 -0.7340916395
upperback  -3.999520063 -0.390989691 -3.434819937
thorax  0.3849030137 -0.03720604256 -3.166790009
lowerneck  -7.805019855 -12.94839954 -10.15649986
upperneck  12.28689957 -17.62860107 10.75230026
head  6.891675949 -8.191527367 3.339430332
lclavicle  0 -4.497500157e-015 -2.743230041e-014
lhumerus  -47.82139969 30.36879921 63.13140106
lradius  -0.03246830404 -6.507048965e-006 30.50219917
lwrist  3.192251654e-007 -3.790274832e-007 -27.8173008
lhand  -4.408073895e-031 -36.76869965 -10.77880001
lfingers  90 7.125020027 -90
lthumb  94.77638389 -25.61741962 100.9380582
rclavicle  0 -4.497500157e-015 -2.743230041e-014
rhumerus  -52.82099915 -31.0196991 -52.75320053
rradius  -5.16745672e-007 2.214343908e-008 68.4661026
rwrist  0.0003490542294 -0.002273720223 -167.7649994
rhand  -1.771450211e-031 4.672679901 -5.356979847
rfingers  -90 -7.125020027 -90
rthumb  -83.88870216 -10.42393946 -59.3843171
rfemur  -10.00371075 15.8992424 13.50538254
rtibia  -0.1231993511 -0.4572885334 18.36234474
rfoot  1.326838493 -21.07718468 -36.05344772
rtoes  3.918253235 19.62785768 -101.5248371
lfemur  -4.609731674 -16.10166168 -21.08282471
ltibia  4.618074417 -0.2489587218 10.71435356
lfoot  0.2027605474 -23.0039959 36.09296799
ltoes  -8.581588086 -18.1338213 -115.8669662
304
root  34.78130731 36.54575798 -14.40849905 8.307470322 -4.187214851 2.994224787
lowerback  -8.086900711 -0.7021540999 -0.7198079824
upperback  -3.995810032 -0.3903622329 -3.428009987
thorax  0.3827610016 -0.03819119185 -3.167819977
lowerneck  -7.807720184 -12.95289993 -10.14799976
upperneck  12.29290009 -17.63180161 10.72140026
head  6.890510082 -8.194161415 3.328069925
lclavicle  0 -4.497500157e-015 -2.743230041e-014
lhumerus  -47.73849869 30.30249977 63.20090103
lradius  -0.03080191836 -6.507048965e-006 30.49950027
lwrist  3.192251654e-007 -3.790274832e-007 -27.70280075
lhand  -4.40767154e-031 -36.76169968 -10.78899956
lfingers  90 7.125020027 -90
lthumb  94.7752099 -25.62760531 100.9314674
rclavicle  0 -4.497500157e-015 -2.743230041e-014
rhumerus  -52.5564003 -31.56949997 -52.72219849
rradius  -5.16745672e-007 2.214343908e-008 66.72740173
rwrist  0.0003490542294 -0.002273720223 -167.3630066
rhand  -1.770696595e-031 4.364170074 -5.403140068
rfingers  -90 -7.125020027 -90
rthumb  -83.99354727 -10.36950537 -59.69118608
rfemur  -10.00581074 15.89813042 13.49904251
rtibia  -0.1016511098 -0.4826447964 18.32996368
rfoot  1.329905748 -21.14418793 -36.03399658
rtoes  3.893699518 19.63255794 -101.4517493
lfemur  -4.610937595 -16.12407494 -21.0768013
ltibia  4.613109589 -0.2489409894 10.71500111
lfoot  0.2059992552 -23.0002327 36.14307404
ltoes  -8.567271135 -18.14041139 -115.8209741
